<?xml version="1.0" encoding="utf-8"?>
<!-- Generator: Adobe Illustrator 19.2.0, SVG Export Plug-In . SVG Version: 6.00 Build 0)  -->
<svg version="1.1" id="Layer_1" xmlns="http://www.w3.org/2000/svg" xmlns:xlink="http://www.w3.org/1999/xlink" x="0px" y="0px"
	 viewBox="0 0 1280 800" style="enable-background:new 0 0 1280 800;" xml:space="preserve">
<style type="text/css">
	.st0{fill:#EBEEEE;}
	.st1{opacity:0.44;fill:#99D0BB;}
</style>
<path class="st0" d="M1348.3,467.5L-5.3,469.8L-5.4,352c0,0,38.2-7.7,54.7-3.5s40.2,13.5,58.8,11.8c18.6-1.7,47.4-17,69.1-16.2
	c21.7,0.8,72.2-15.4,92.8-15.4c20.6,0,42.3-17.9,60.8-27.2c18.6-9.4,39.2-39.1,67-39.1c27.9,0,31,13.5,37.2,13.5
	c6.2,0,55.7-34,55.7-34l93.9,40.5c0,0,17.6,20.3,40.3,26.2c22.7,5.9,57.8,1.6,80.5-6.9c22.7-8.5,44.4-3.5,59.8-0.1
	c15.5,3.4,39.2,25.4,57.8,25.3c18.6,0,46.4-0.9,67.1,8.4c20.6,9.3,42.3,11.8,56.8,11.8c14.4,0,57.8,1.6,83.6,14.3
	c25.8,12.7,98,25.3,113.5,14.2c15.5-11,31.9-48.4,45.4-49.2c13.4-0.9,28.9-3.4,34-12.8c5.2-9.3,23.7-32.3,52.6-12
	c28.9,20.3,58.8,37.2,58.8,37.2L1348.3,467.5z"/>
<path class="st1" d="M-23.3,470.1l1310-1.7l-0.2-130.1c0,0-37-8.4-52.9-3.7s-38.9,15-56.9,13.2c-18-1.8-46-18.7-66.9-17.7
	c-21,1-69.9-16.8-89.9-16.7c-20,0-41-19.6-58.9-29.9c-18-10.3-38-43-65-43c-27,0-29.9,15-35.9,15c-6,0-54-37.4-54-37.4l-90.8,45.1
	c0,0-16.9,22.5-38.9,29.1s-55.9,1.9-77.9-7.4c-22-9.3-42.9-3.7-57.9,0.1c-15,3.8-37.9,28.1-55.9,28.2c-18,0-44.9-0.9-64.9,9.4
	s-40.9,13.2-54.9,13.2c-14,0-55.9,1.9-80.9,16c-24.9,14.1-94.8,28.2-109.8,16.1c-15-12.2-31-53.3-44-54.2s-28-3.7-33-14
	c-5-10.3-23-35.5-50.9-13c-27.9,22.5-56.9,41.3-56.9,41.3L-23.3,470.1z"/>
</svg>
